<svg width="97" height="34" viewBox="0 0 97 34" fill="none" xmlns="http://www.w3.org/2000/svg">
<path d="M12.864 32.48H13.824L21.504 30.8V29.552C21.264 29.6 21.024 29.6 20.832 29.6C20.4 29.6 19.968 29.408 19.68 29.12C19.152 28.64 19.056 28.112 19.056 26.288V-0.0159998H9.936V0.943999H10.704C12.24 1.04 12.912 1.952 12.864 3.728V11.792C11.616 10.064 10.416 9.44 8.544 9.44C4.272 9.44 1.296 14.096 1.296 20.72C1.296 24.656 2.112 27.776 3.792 29.984C4.944 31.52 6.672 32.48 8.256 32.48C9.888 32.48 11.28 31.76 12.864 30.08V32.48ZM12.864 25.28C12.864 26.768 12.72 27.296 12.144 28.16C11.616 28.832 11.088 29.168 10.416 29.168C8.736 29.168 7.968 26.576 7.968 20.72C7.968 14.288 8.496 12.128 10.176 12.128C11.232 12.128 12 12.8 12.864 14.384V25.28ZM40.8461 20.576C40.7981 17.552 40.3661 15.728 39.2621 13.808C37.6781 11.072 35.1821 9.44 32.5421 9.44C29.9501 9.44 27.3581 10.976 25.6301 13.472C24.1421 15.632 23.3741 18.368 23.3741 21.68C23.3741 25.472 24.3341 28.208 26.3501 30.128C27.9341 31.616 30.0461 32.48 32.2541 32.48C35.9981 32.48 39.1181 30.128 40.8461 26L39.6941 25.424C38.4461 27.872 37.1501 28.832 35.0861 28.832C31.8221 28.832 29.6621 25.664 29.5181 20.576H40.8461ZM29.4221 18.8C29.4701 13.904 30.6221 11.264 32.7341 11.264C33.6941 11.264 34.5581 12.032 34.8461 13.184C35.1821 14.432 35.2301 14.768 35.3261 18.8H29.4221ZM51.4069 15.776C52.7509 13.328 53.7109 12.416 54.8629 12.416C55.2949 12.416 55.7269 12.656 56.0629 13.088C56.4949 13.664 56.5429 14.048 56.5429 16.208V28.16C56.5909 29.84 56.0629 30.656 54.6709 30.992V32H64.6069V30.992C63.2629 30.704 62.6869 29.84 62.7349 28.16V15.776C63.8389 13.616 65.0869 12.416 66.1429 12.416C67.3429 12.416 67.8229 13.664 67.8229 16.688V28.16C67.8709 29.84 67.3429 30.704 65.9989 30.992V32H76.4629V30.992H76.1269C74.6869 30.944 73.9189 29.936 74.0149 28.16V17.408C74.0149 14.768 73.6789 13.184 72.8629 11.84C71.9989 10.352 70.3669 9.44 68.5909 9.44C66.2869 9.44 64.7029 10.544 62.7349 13.52C61.2949 10.592 59.8549 9.44 57.4069 9.44C55.1509 9.44 53.3269 10.496 51.4069 12.944V9.92H42.6709V10.928H43.2469C44.5429 10.928 45.2629 11.936 45.2149 13.664V28.16C45.3109 30.032 44.4469 31.088 42.8629 30.992H42.6709V32H53.5189V30.992H53.3749C52.0309 30.848 51.3109 29.84 51.4069 28.16V15.776ZM88.0624 9.44C82.3024 9.44 78.0304 14.384 78.0304 21.056C78.0304 24.368 79.1824 27.488 81.2944 29.552C83.0224 31.328 85.6144 32.48 87.8224 32.48C90.4624 32.48 93.2944 31.184 95.1184 29.12C96.8944 27.056 97.9024 24.08 97.9024 20.72C97.9024 14.288 93.6304 9.44 88.0624 9.44ZM87.9664 11.312C89.1184 11.312 90.1744 12.176 90.6064 13.472C91.0384 14.816 91.2304 16.544 91.2304 19.664C91.2304 27.824 90.3184 30.608 87.6304 30.608C85.6144 30.608 84.7024 28.256 84.7024 23.12C84.7024 14.096 85.4704 11.312 87.9664 11.312Z" transform="translate(-1 1)" fill="white"/>
</svg>
