<svg width="407" height="99" viewBox="0 0 407 99" version="1.1" xmlns="http://www.w3.org/2000/svg" xmlns:xlink="http://www.w3.org/1999/xlink">
<g id="Canvas" fill="none">
<g id="hemlok">
<path d="M 27.648 -0.0479994L 1.872 -0.0479994L 1.872 2.976L 2.88 2.976C 7.056 3.264 9.36 6.432 9.072 11.472L 9.072 84.48C 9.36 89.808 7.056 92.832 2.448 92.976L 1.872 92.976L 1.872 96L 32.976 96L 32.976 92.976C 29.232 92.256 27.504 89.52 27.648 84.48L 27.648 47.328C 31.68 39.984 34.128 37.68 38.016 37.68C 41.328 37.68 42.912 40.848 42.912 47.328L 42.912 84.48C 43.056 89.52 41.472 92.256 37.584 92.976L 37.584 96L 68.832 96L 68.832 92.976L 67.824 92.976C 63.504 92.832 61.2 89.952 61.488 84.48L 61.488 49.92C 61.488 36.24 55.44 28.32 44.928 28.32C 38.88 28.32 33.552 31.632 27.648 38.976L 27.648 -0.0479994ZM 126.054 61.728C 125.91 52.656 124.614 47.184 121.302 41.424C 116.55 33.216 109.062 28.32 101.142 28.32C 93.366 28.32 85.59 32.928 80.406 40.416C 75.942 46.896 73.638 55.104 73.638 65.04C 73.638 76.416 76.518 84.624 82.566 90.384C 87.318 94.848 93.654 97.44 100.278 97.44C 111.51 97.44 120.87 90.384 126.054 78L 122.598 76.272C 118.854 83.616 114.966 86.496 108.774 86.496C 98.982 86.496 92.502 76.992 92.07 61.728L 126.054 61.728ZM 91.782 56.4C 91.926 41.712 95.382 33.792 101.718 33.792C 104.598 33.792 107.19 36.096 108.054 39.552C 109.062 43.296 109.206 44.304 109.494 56.4L 91.782 56.4ZM 157.736 47.328C 161.768 39.984 164.648 37.248 168.104 37.248C 169.4 37.248 170.696 37.968 171.704 39.264C 173 40.992 173.144 42.144 173.144 48.624L 173.144 84.48C 173.288 89.52 171.704 91.968 167.528 92.976L 167.528 96L 197.336 96L 197.336 92.976C 193.304 92.112 191.576 89.52 191.72 84.48L 191.72 47.328C 195.032 40.848 198.776 37.248 201.944 37.248C 205.544 37.248 206.984 40.992 206.984 50.064L 206.984 84.48C 207.128 89.52 205.544 92.112 201.512 92.976L 201.512 96L 232.904 96L 232.904 92.976L 231.896 92.976C 227.576 92.832 225.272 89.808 225.56 84.48L 225.56 52.224C 225.56 44.304 224.552 39.552 222.104 35.52C 219.512 31.056 214.616 28.32 209.288 28.32C 202.376 28.32 197.624 31.632 191.72 40.56C 187.4 31.776 183.08 28.32 175.736 28.32C 168.968 28.32 163.496 31.488 157.736 38.832L 157.736 29.76L 131.528 29.76L 131.528 32.784L 133.256 32.784C 137.144 32.784 139.304 35.808 139.16 40.992L 139.16 84.48C 139.448 90.096 136.856 93.264 132.104 92.976L 131.528 92.976L 131.528 96L 164.072 96L 164.072 92.976L 163.64 92.976C 159.608 92.544 157.448 89.52 157.736 84.48L 157.736 47.328ZM 261.367 -0.0479994L 235.447 -0.0479994L 235.447 2.688L 236.311 2.688C 240.775 2.688 243.079 5.712 242.791 11.04L 242.791 84.624C 243.079 89.808 240.775 92.976 236.599 93.12L 235.447 93.12L 235.447 96L 268.423 96L 268.423 93.12L 267.559 93.12C 263.383 92.976 261.079 89.808 261.367 84.624L 261.367 -0.0479994ZM 303.562 28.32C 286.282 28.32 273.466 43.152 273.466 63.168C 273.466 73.104 276.922 82.464 283.258 88.656C 288.442 93.984 296.218 97.44 302.842 97.44C 310.762 97.44 319.258 93.552 324.73 87.36C 330.058 81.168 333.082 72.24 333.082 62.16C 333.082 42.864 320.266 28.32 303.562 28.32ZM 303.274 33.936C 306.73 33.936 309.898 36.528 311.194 40.416C 312.49 44.448 313.066 49.632 313.066 58.992C 313.066 83.472 310.33 91.824 302.266 91.824C 296.218 91.824 293.482 84.768 293.482 69.36C 293.482 42.288 295.786 33.936 303.274 33.936ZM 364.445 68.64L 366.317 66.624L 378.413 85.632C 380.717 89.088 380.717 89.088 380.717 90.384C 380.717 91.824 379.709 92.544 377.261 92.832L 375.533 93.12L 375.533 96L 407.213 96L 407.213 93.12C 403.469 92.688 402.749 92.112 399.149 86.352L 378.413 53.52L 387.341 43.584C 394.397 35.376 395.549 34.512 401.741 32.64L 401.741 29.76L 373.949 29.76L 373.949 32.64C 379.853 33.504 382.445 35.088 382.445 37.968C 382.445 40.56 380.573 44.16 377.261 47.76L 364.445 61.872L 364.445 -0.0479994L 338.525 -0.0479994L 338.525 2.976L 339.389 2.976C 343.853 2.976 346.157 6 345.869 11.328L 345.869 84.624C 346.157 89.952 343.853 93.12 339.389 93.12L 338.525 93.12L 338.525 96L 371.357 96L 371.357 93.12L 370.925 93.12C 366.605 92.976 364.157 89.952 364.445 84.624L 364.445 68.64Z" transform="translate(-1 1)" fill="#FFFFFF"/>
</g>
</g>
</svg>

