<svg width="555" height="294" viewBox="0 0 555 294" fill="none" xmlns="http://www.w3.org/2000/svg">
<path id="spring keyframes" d="M46.368 27.888H43.776C43.632 30.624 42.048 32.352 39.888 32.352C38.88 32.352 37.584 31.92 34.128 30.768C29.52 29.04 27.936 28.752 24.768 28.752C13.536 28.752 4.464 37.104 4.464 47.472C4.464 55.968 9.36 63.024 19.296 68.64C31.68 75.552 31.68 75.552 34.416 78.288C35.856 79.728 36.864 81.888 36.864 83.76C36.864 88.08 32.112 91.968 26.784 91.968C18.432 91.968 9.936 84.624 7.2 75.12H4.752L5.904 97.008H8.064C9.216 93.984 10.368 92.976 12.672 92.976C14.112 92.976 14.4 93.12 17.856 94.56C21.744 96.144 25.488 97.008 29.088 97.008C40.752 97.008 50.4 88.08 50.4 77.28C50.4 68.352 45.36 61.296 34.848 55.536C21.456 48.192 21.456 48.192 19.584 46.176C18.288 45.024 17.424 43.008 17.424 41.136C17.424 37.104 21.456 33.792 26.64 33.792C34.128 33.792 41.184 39.84 45.216 49.776H47.376L46.368 27.888ZM81.7886 90.528C85.1006 95.28 88.9886 97.44 94.1726 97.44C99.5006 97.44 104.973 94.56 108.861 89.52C113.901 83.184 116.205 74.976 116.205 63.456C116.205 42.864 107.421 28.32 94.8926 28.32C89.8526 28.32 85.9646 30.48 81.7886 35.664V28.896H78.3326L56.4446 34.656V37.536H58.0286C61.7726 38.4 63.3566 40.992 63.2126 45.888V108.24C63.5006 113.424 61.0526 116.592 56.8766 116.592H55.7246V119.472H90.5726V116.592H89.1326C84.0926 116.88 81.5006 113.856 81.7886 108.24V90.528ZM81.7886 50.208C81.7886 45.456 82.0766 44.448 83.5166 42.144C84.9566 39.84 86.9726 38.544 89.1326 38.544C94.3166 38.544 96.1886 45.168 96.1886 63.312C96.1886 83.184 94.7486 89.376 89.9966 89.376C86.8286 89.376 83.3726 86.352 81.7886 82.176V50.208ZM148.318 29.76H122.542V32.64H123.55C127.726 32.784 130.03 35.808 129.742 41.136V84.624C130.03 89.952 127.726 92.976 123.55 93.12H122.542V96H156.382V93.12H154.51C150.334 92.976 148.03 89.952 148.318 84.624V55.824C148.318 47.04 150.478 41.856 154.078 41.856C155.374 41.856 156.67 42.576 158.254 43.872C160.99 46.32 161.566 46.608 163.582 46.608C167.758 46.608 170.782 42.864 170.782 37.68C170.782 32.208 167.182 28.176 162.43 28.176C157.39 28.176 153.07 31.776 148.318 39.984V29.76ZM201.189 29.76H175.269V32.784H176.133C180.453 32.784 182.901 35.808 182.613 41.28V84.48C182.901 89.808 180.453 92.976 176.133 92.976H175.269V96H208.821V92.976H207.669C203.349 92.976 200.901 89.808 201.189 84.48V29.76ZM190.821 -0.911997C185.061 -0.911997 180.597 3.552 180.597 9.024C180.597 14.784 185.061 19.248 190.677 19.248C196.293 19.248 200.757 14.784 200.757 9.168C200.757 3.696 196.293 -0.911997 190.821 -0.911997ZM237.615 48.048C241.215 40.848 244.239 37.68 247.551 37.68C251.295 37.68 252.879 40.704 252.879 48.048V84.624C253.023 89.664 251.439 92.112 247.551 93.12V96H278.799V93.12H277.791C273.471 92.832 271.167 89.952 271.455 84.624V46.608C271.455 36.096 264.543 28.32 255.039 28.32C248.415 28.32 243.951 31.2 237.615 39.696V29.76H211.983V32.64H212.991C217.167 33.072 219.327 36.24 219.039 41.568V84.624C219.327 89.952 217.023 92.832 212.559 93.12H211.551V96H242.943V93.12C239.055 92.112 237.471 89.664 237.615 84.624V48.048ZM342.363 30.768H321.483C317.307 29.04 313.995 28.32 309.387 28.32C294.843 28.32 283.899 37.824 283.899 50.352C283.899 58.992 289.371 66.768 298.875 71.232C289.947 75.408 285.915 80.304 285.915 87.072C285.915 91.536 288.507 95.712 292.539 98.16C286.203 100.032 283.323 102.768 283.323 106.8C283.323 114.72 293.691 119.328 311.691 119.328C321.195 119.328 328.251 117.744 333.723 114.288C339.339 110.688 342.651 105.072 342.651 99.168C342.651 92.688 338.907 87.648 332.283 85.2C327.963 83.616 325.227 83.328 309.819 83.328C303.915 83.328 303.627 83.328 302.331 83.04C300.171 82.464 298.875 80.736 298.875 78.576C298.875 75.12 302.043 73.392 308.235 73.536C325.371 73.824 337.035 65.184 337.035 52.224C337.035 47.616 336.027 44.88 332.427 38.976H342.363V30.768ZM311.259 33.36C313.131 33.36 315.003 34.512 316.443 36.384C318.171 38.832 319.179 44.448 319.179 51.648C319.179 63.168 316.587 68.352 310.827 68.352C305.355 68.352 302.907 63.168 302.907 51.792C302.907 45.456 303.339 42 304.203 39.12C305.355 35.664 308.235 33.36 311.259 33.36ZM310.251 99.888C325.083 99.888 331.131 101.472 331.131 105.504C331.131 110.4 323.643 113.856 312.699 113.856C307.803 113.856 302.187 112.848 299.163 111.408C296.859 110.4 295.275 108.096 295.275 105.936C295.275 103.776 296.859 101.76 299.019 100.896C301.323 100.176 304.347 99.888 310.251 99.888ZM27.648 241.64L29.52 239.624L41.616 258.632C43.92 262.088 43.92 262.088 43.92 263.384C43.92 264.824 42.912 265.544 40.464 265.832L38.736 266.12V269H70.416V266.12C66.672 265.688 65.952 265.112 62.352 259.352L41.616 226.52L50.544 216.584C57.6 208.376 58.752 207.512 64.944 205.64V202.76H37.152V205.64C43.056 206.504 45.648 208.088 45.648 210.968C45.648 213.56 43.776 217.16 40.464 220.76L27.648 234.872V172.952H1.728V175.976H2.592C7.056 175.976 9.36 179 9.072 184.328V257.624C9.36 262.952 7.056 266.12 2.592 266.12H1.728V269H34.56V266.12H34.128C29.808 265.976 27.36 262.952 27.648 257.624V241.64ZM123.242 234.728C123.097 225.656 121.802 220.184 118.49 214.424C113.737 206.216 106.25 201.32 98.3295 201.32C90.5535 201.32 82.7775 205.928 77.5935 213.416C73.1295 219.896 70.8255 228.104 70.8255 238.04C70.8255 249.416 73.7055 257.624 79.7535 263.384C84.5055 267.848 90.8415 270.44 97.4655 270.44C108.697 270.44 118.057 263.384 123.242 251L119.786 249.272C116.041 256.616 112.154 259.496 105.961 259.496C96.1695 259.496 89.6895 249.992 89.2575 234.728H123.242ZM88.9695 229.4C89.1135 214.712 92.5695 206.792 98.9055 206.792C101.785 206.792 104.377 209.096 105.242 212.552C106.25 216.296 106.393 217.304 106.681 229.4H88.9695ZM160.319 240.776L151.679 220.04C149.807 215.432 148.943 212.552 148.943 210.248C148.943 207.368 150.527 205.64 153.407 205.64H154.703V202.76H121.583V205.64C126.479 206.792 127.487 208.376 133.823 224.36L151.247 265.976L146.783 276.92C144.623 282.248 142.607 284.984 140.447 284.984C139.439 284.984 138.719 284.264 138.719 283.256V282.248C138.863 281.528 138.863 281.096 138.863 280.52C138.863 276.2 135.551 273.032 131.087 273.032C126.191 273.032 122.735 276.632 122.735 281.96C122.735 288.152 128.063 292.904 134.975 292.904C142.031 292.904 147.647 287.864 151.247 278.36L171.407 224.36C178.175 206.792 178.895 205.784 184.367 205.64V202.76H163.055V205.64H164.783C167.663 205.64 169.679 207.656 169.679 210.392C169.679 212.984 168.671 217.304 167.231 221.192L160.319 240.776ZM210.896 210.248H220.256V203.192H210.896V182.168C210.896 178.568 212.336 176.408 214.64 176.408C215.648 176.408 216.8 177.56 216.8 178.568C216.8 178.856 216.8 179.288 216.656 179.864C216.368 180.728 216.224 182.168 216.224 183.032C216.224 186.632 218.96 188.936 223.28 188.936C228.464 188.936 232.784 185.48 232.784 181.304C232.784 175.832 225.872 171.512 217.232 171.512C203.984 171.512 192.32 181.448 192.32 192.68V203.192H183.68V210.248H192.32V257.768C192.608 262.952 190.304 266.12 185.984 266.12H183.68V269H220.256V266.12H217.232C212.912 265.976 210.608 263.096 210.896 257.768V210.248ZM252.802 202.76H227.026V205.64H228.034C232.21 205.784 234.514 208.808 234.226 214.136V257.624C234.514 262.952 232.21 265.976 228.034 266.12H227.026V269H260.866V266.12H258.994C254.818 265.976 252.514 262.952 252.802 257.624V228.824C252.802 220.04 254.962 214.856 258.562 214.856C259.858 214.856 261.154 215.576 262.738 216.872C265.474 219.32 266.05 219.608 268.066 219.608C272.242 219.608 275.266 215.864 275.266 210.68C275.266 205.208 271.666 201.176 266.914 201.176C261.874 201.176 257.554 204.776 252.802 212.984V202.76ZM338.985 257.912C336.825 260.936 336.537 261.224 335.241 261.224C332.937 261.224 332.073 259.064 332.073 253.88V220.04C332.073 213.848 330.489 209.24 327.465 206.504C324.009 203.336 317.241 201.32 310.041 201.32C295.065 201.32 282.105 209.528 282.105 219.032C282.105 224.072 286.713 228.248 292.041 228.248C297.369 228.248 301.977 224.648 301.977 220.328C301.977 218.744 301.113 217.16 299.385 215.432C297.801 213.848 297.513 213.272 297.513 212.12C297.513 209.24 300.825 207.224 305.433 207.224C308.457 207.224 311.193 208.52 312.201 210.248C312.921 211.688 313.497 215.432 313.497 218.456V228.824C305.721 231.56 299.529 234.44 293.913 238.04C285.129 243.368 281.097 249.128 281.097 256.472C281.097 264.104 287.433 270.152 295.497 270.152C300.969 270.152 307.737 266.552 313.497 260.36C314.937 266.84 319.401 270.44 325.737 270.44C332.217 270.44 337.977 266.696 341.577 260.36L338.985 257.912ZM313.497 253.88C309.897 257.192 308.025 258.2 305.721 258.2C302.697 258.2 300.681 255.464 300.681 251.144C300.681 244.376 305.433 238.184 313.497 234.728V253.88ZM369.236 220.328C373.268 212.984 376.148 210.248 379.604 210.248C380.9 210.248 382.196 210.968 383.204 212.264C384.5 213.992 384.644 215.144 384.644 221.624V257.48C384.788 262.52 383.204 264.968 379.028 265.976V269H408.836V265.976C404.804 265.112 403.076 262.52 403.22 257.48V220.328C406.532 213.848 410.276 210.248 413.444 210.248C417.044 210.248 418.484 213.992 418.484 223.064V257.48C418.628 262.52 417.044 265.112 413.012 265.976V269H444.404V265.976H443.396C439.076 265.832 436.772 262.808 437.06 257.48V225.224C437.06 217.304 436.052 212.552 433.604 208.52C431.012 204.056 426.116 201.32 420.788 201.32C413.876 201.32 409.124 204.632 403.22 213.56C398.9 204.776 394.58 201.32 387.236 201.32C380.468 201.32 374.996 204.488 369.236 211.832V202.76H343.028V205.784H344.756C348.644 205.784 350.804 208.808 350.66 213.992V257.48C350.948 263.096 348.356 266.264 343.604 265.976H343.028V269H375.572V265.976H375.14C371.108 265.544 368.948 262.52 369.236 257.48V220.328ZM501.523 234.728C501.379 225.656 500.083 220.184 496.771 214.424C492.019 206.216 484.531 201.32 476.611 201.32C468.835 201.32 461.059 205.928 455.875 213.416C451.411 219.896 449.107 228.104 449.107 238.04C449.107 249.416 451.987 257.624 458.035 263.384C462.787 267.848 469.123 270.44 475.747 270.44C486.979 270.44 496.339 263.384 501.523 251L498.067 249.272C494.323 256.616 490.435 259.496 484.243 259.496C474.451 259.496 467.971 249.992 467.539 234.728H501.523ZM467.251 229.4C467.395 214.712 470.851 206.792 477.187 206.792C480.067 206.792 482.659 209.096 483.523 212.552C484.531 216.296 484.675 217.304 484.963 229.4H467.251ZM551.493 200.888H548.901C548.757 203.624 547.173 205.352 545.013 205.352C544.005 205.352 542.709 204.92 539.253 203.768C534.645 202.04 533.061 201.752 529.893 201.752C518.661 201.752 509.589 210.104 509.589 220.472C509.589 228.968 514.485 236.024 524.421 241.64C536.805 248.552 536.805 248.552 539.541 251.288C540.981 252.728 541.989 254.888 541.989 256.76C541.989 261.08 537.237 264.968 531.909 264.968C523.557 264.968 515.061 257.624 512.325 248.12H509.877L511.029 270.008H513.189C514.341 266.984 515.493 265.976 517.797 265.976C519.237 265.976 519.525 266.12 522.981 267.56C526.869 269.144 530.613 270.008 534.213 270.008C545.877 270.008 555.525 261.08 555.525 250.28C555.525 241.352 550.485 234.296 539.973 228.536C526.581 221.192 526.581 221.192 524.709 219.176C523.413 218.024 522.549 216.008 522.549 214.136C522.549 210.104 526.581 206.792 531.765 206.792C539.253 206.792 546.309 212.84 550.341 222.776H552.501L551.493 200.888Z" transform="translate(-1 1)" fill="white"/>
</svg>
